<svg xmlns="http://www.w3.org/2000/svg" width="24" height="24" viewBox="0 0 24 24">
  <g fill="none" fill-rule="evenodd">
    <path fill="#001D2F" fill-rule="nonzero" d="M15.5737634,7.43077902 C16.3251802,7.43526417 17.3005924,7.43526417 18.5,7.43077902 C19.8334524,7.43077902 20.9106762,8.49258645 20.9947206,9.81918791 L21,9.98633457 L21,16.8752235 C21,18.2225074 19.9761143,19.3382062 18.6652937,19.4253064 L18.5,19.430779 L17,19.430779 L17,14.7495813 L16.9932723,14.63884 C16.9355072,14.1665765 16.5128358,13.8 16,13.8 C15.4477153,13.8 15,14.225142 15,14.7495813 L15,14.7495813 L15,19.430779 L13,19.430779 L13,14.7495813 L12.9932723,14.63884 C12.9355072,14.1665765 12.5128358,13.8 12,13.8 C11.4477153,13.8 11,14.225142 11,14.7495813 L11,14.7495813 L11,19.430779 L9,19.430779 L9,14.7495813 L8.99327227,14.63884 C8.93550716,14.1665765 8.51283584,13.8 8,13.8 C7.44771525,13.8 7,14.225142 7,14.7495813 L7,14.7495813 L7,19.430779 L5.5,19.430779 C4.16654764,19.430779 3.08932381,18.3689716 3.00527943,17.0423701 L3,16.8752235 L3,9.98633457 C3,8.63905065 4.02388574,7.52335186 5.33470629,7.43625161 L5.5,7.43077902 L15.5737634,7.43077902 Z"/>
    <path fill="#001D2F" fill-rule="nonzero" d="M16.9973178,8 L16.9973178,6 C16.9973178,4.8954305 16.1018873,4 14.9973178,4 L8.99731783,4 C7.89274833,4 6.99731783,4.8954305 6.99731783,6 L6.99731783,8 L16.9973178,8 Z"/>
  </g>
</svg>
