<svg xmlns="http://www.w3.org/2000/svg" width="24" height="24" viewBox="0 0 24 24">
  <g fill="none" fill-rule="evenodd">
    <path fill="#001D2F" fill-rule="nonzero" d="M8,7.43077902 C9.12712532,7.43750675 9,7.87849427 9,8.43077902 C9,8.94361486 8.61395981,9.36628618 8.11662113,9.42405129 L8,9.43077902 L5.5,9.43077902 C5.26191877,9.43077902 5.05203133,9.62100684 5.00832895,9.88437272 L5,9.98633457 L5,16.8752235 C5,17.1550443 5.18343397,17.3763634 5.41231064,17.4220908 L5.5,17.430779 L18.5,17.430779 C18.7380812,17.430779 18.9479687,17.2405512 18.991671,16.9771853 L19,16.8752235 L19,9.98633457 C19,9.70651372 18.816566,9.48519469 18.5876894,9.43946726 L18.5,9.43077902 L16,9.43077902 C15.4477153,9.43077902 15,8.98306377 15,8.43077902 C15,7.91794318 14.8581178,7.43077902 15.8833789,7.43750675 L16,7.43077902 L18.5,7.43077902 C19.8334524,7.43077902 20.9106762,8.49258645 20.9947206,9.81918791 L21,9.98633457 L21,16.8752235 C21,18.2225074 19.9761143,19.3382062 18.6652937,19.4253064 L18.5,19.430779 L5.5,19.430779 C4.16654764,19.430779 3.08932381,18.3689716 3.00527943,17.0423701 L3,16.8752235 L3,9.98633457 C3,8.63905065 4.02388574,7.52335186 5.33470629,7.43625161 L5.5,7.43077902 L8,7.43077902 Z"/>
    <path fill="#001D2F" fill-rule="nonzero" d="M8 13C8.51283584 13 8.93550716 13.3860402 8.99327227 13.8833789L9 14 9 17.0851852C9 17.6374699 8.55228475 18.0851852 8 18.0851852 7.48716416 18.0851852 7.06449284 17.699145 7.00672773 17.2018063L7 17.0851852 7 14C7 13.4477153 7.44771525 13 8 13zM12 13C12.5128358 13 12.9355072 13.3860402 12.9932723 13.8833789L13 14 13 17.0851852C13 17.6374699 12.5522847 18.0851852 12 18.0851852 11.4871642 18.0851852 11.0644928 17.699145 11.0067277 17.2018063L11 17.0851852 11 14C11 13.4477153 11.4477153 13 12 13zM16 13C16.5128358 13 16.9355072 13.3860402 16.9932723 13.8833789L17 14 17 17.0851852C17 17.6374699 16.5522847 18.0851852 16 18.0851852 15.4871642 18.0851852 15.0644928 17.699145 15.0067277 17.2018063L15 17.0851852 15 14C15 13.4477153 15.4477153 13 16 13zM16.9973178 8L16.9973178 6C16.9973178 4.8954305 16.1018873 4 14.9973178 4L8.99731783 4C7.89274833 4 6.99731783 4.8954305 6.99731783 6L6.99731783 8 16.9973178 8zM8.99731783 6L14.9973178 6 14.9973178 8 8.99731783 8 8.99731783 6z"/>
  </g>
</svg>
