<svg xmlns="http://www.w3.org/2000/svg" width="24" height="24" viewBox="0 0 24 24">
  <path fill="#001D2F" fill-rule="evenodd" d="M11.8699779,17.9014309 C12.2617785,17.9014309 12.5961429,18.0403028 12.8733819,18.3175418 C13.1506209,18.5947808 13.289221,18.9291064 13.289221,19.320907 C13.289221,19.7127075 13.1506209,20.047072 12.8733819,20.3242721 C12.5961429,20.6015111 12.2617785,20.7402665 11.8699779,20.7402665 C11.4780609,20.7402665 11.1436964,20.6015111 10.8663409,20.3242721 C10.5891019,20.047072 10.4506184,19.7127075 10.4506184,19.320907 C10.4506184,18.9291064 10.5892573,18.5947808 10.8663409,18.3175418 C11.1436964,18.0403028 11.4782162,17.9014309 11.8699779,17.9014309 Z M6.90282136,15.5952483 C7.33897084,15.5952483 7.71399493,15.7507413 8.02824314,16.0609119 C8.34237484,16.371898 8.49938244,16.7485143 8.49938244,17.19212 C8.49938244,17.6357646 8.342336,18.013041 8.02824314,18.323367 C7.71403376,18.6338094 7.33897084,18.7890306 6.90282136,18.7890306 C6.45933217,18.7890306 6.08236636,18.6338094 5.77176859,18.323367 C5.46128733,18.0126527 5.30610494,17.6357646 5.30610494,17.19212 C5.30610494,16.7485143 5.46140383,16.3716262 5.77176859,16.0609119 C6.08224986,15.7504695 6.45921567,15.5952483 6.90282136,15.5952483 Z M16.8371733,15.9502338 C17.1771299,15.9502338 17.469126,16.0720574 17.7130839,16.316093 C17.9570806,16.5601285 18.0789819,16.8519304 18.0789819,17.1921589 C18.0789819,17.5322708 17.9570806,17.8242669 17.7130839,18.0682636 C17.4690872,18.3119885 17.1771299,18.4339674 16.8371733,18.4339674 C16.4969837,18.4339674 16.2049877,18.3122215 15.9609909,18.0682636 C15.7172661,17.8242281 15.5952483,17.5321155 15.5952483,17.1921589 C15.5952483,16.8519304 15.7172661,16.5598179 15.9609909,16.316093 C16.2049877,16.0720962 16.4969449,15.9502338 16.8371733,15.9502338 Z M4.77399559,10.4506572 C5.26183369,10.4506572 5.67953682,10.6243248 6.02694963,10.9717376 C6.37440127,11.3194611 6.54803001,11.73697 6.54803001,12.2248081 C6.54803001,12.7125686 6.37440127,13.1302329 6.02694963,13.4775292 C5.67953682,13.8250585 5.26183369,13.9987649 4.77399559,13.9987649 C4.28611865,13.9987649 3.86849319,13.8250585 3.52104154,13.4775292 C3.17362874,13.1299998 3,12.7125686 3,12.2248081 C3,11.7368147 3.17366757,11.3191892 3.52104154,10.9717376 C3.86849319,10.6243636 4.28611865,10.4506572 4.77399559,10.4506572 Z M18.9660768,11.1603952 C19.2616456,11.1603952 19.5129432,11.2637725 19.7198531,11.47076 C19.9270736,11.677864 20.030179,11.9292781 20.030179,12.2249635 C20.030179,12.5204935 19.9269183,12.7719852 19.7198531,12.9787397 C19.5130986,13.1858049 19.2616456,13.2891822 18.9660768,13.2891822 C18.6702361,13.2891822 18.419055,13.1858049 18.2120287,12.9787397 C18.0052353,12.7722182 17.9018581,12.5204935 17.9018581,12.2249635 C17.9018581,11.9291228 18.0052353,11.6777475 18.2120287,11.47076 C18.4189385,11.2637725 18.6702361,11.1603952 18.9660768,11.1603952 Z M6.90293786,5.30629912 C7.44250343,5.30629912 7.90265259,5.49666549 8.28326884,5.87728174 C8.66388508,6.25789798 8.85425146,6.71804714 8.85425146,7.25761271 C8.85425146,7.79725595 8.66388508,8.25732744 8.28326884,8.63809902 C7.90265259,9.01871527 7.44250343,9.20915931 6.90293786,9.20915931 C6.3633723,9.20915931 5.90326197,9.01883177 5.52245155,8.63809902 C5.1417188,8.25732744 4.95146893,7.79737245 4.95146893,7.25761271 C4.95146893,6.71804714 5.1417188,6.25789798 5.52245155,5.87728174 C5.90314547,5.49666549 6.36325579,5.30629912 6.90293786,5.30629912 Z M16.8371733,6.3705955 C17.0808982,6.3705955 17.289944,6.45742928 17.4635339,6.63121336 C17.6372403,6.80488093 17.7242682,7.01361599 17.7242682,7.25761271 C17.7242682,7.50149293 17.6372403,7.71038333 17.4635339,7.8841674 C17.2900605,8.05779614 17.0808982,8.14478526 16.8371733,8.14478526 C16.5931766,8.14478526 16.3842474,8.05795147 16.210541,7.8841674 C16.0369511,7.71038333 15.9500785,7.50160943 15.9500785,7.25761271 C15.9500785,7.01361599 16.0369511,6.80491976 16.210541,6.63121336 C16.3842474,6.45758462 16.5931766,6.3705955 16.8371733,6.3705955 Z M11.8699779,3 C12.461504,3 12.9640215,3.20698751 13.3778412,3.62080719 C13.7916609,4.03493755 13.9986095,4.53757158 13.9986095,5.12882577 C13.9986095,5.72015763 13.7916609,6.22286933 13.3778412,6.63668901 C12.9640215,7.05066403 12.461504,7.25753504 11.8699779,7.25753504 C11.2786072,7.25753504 10.7758567,7.05054753 10.3618817,6.63668901 C9.9479455,6.22267516 9.7410745,5.72015763 9.7410745,5.12882577 C9.7410745,4.53753274 9.94802317,4.03478222 10.3618817,3.62080719 C10.7758567,3.20687101 11.2787237,3 11.8699779,3 Z"/>
</svg>
