<svg width="24" height="24" viewBox="0 0 24 24" fill="none" xmlns="http://www.w3.org/2000/svg">
<path fill-rule="evenodd" clip-rule="evenodd" d="M8.47427 4.94853C8.47427 4.39218 8.92528 3.94118 9.48162 3.94118C10.038 3.94118 10.489 4.39218 10.489 4.94853V13.511L13.511 13.511V4.94853C13.511 4.39218 13.962 3.94118 14.5184 3.94118C15.0747 3.94118 15.5257 4.39218 15.5257 4.94853V13.511L16.5331 13.511H18.0441V5.45221C18.0441 4.89586 18.4951 4.44485 19.0515 4.44485C19.6078 4.44485 20.0588 4.89586 20.0588 5.45221V13.7806C20.661 14.1289 21.0662 14.78 21.0662 15.5257V17.4538C21.0662 18.1044 20.7519 18.715 20.2225 19.0932L19.396 19.6835C19.0543 19.9276 18.6449 20.0588 18.225 20.0588H5.77503C5.35512 20.0588 4.9457 19.9276 4.604 19.6835L3.7775 19.0932C3.24805 18.715 2.93382 18.1044 2.93382 17.4538V15.5257C2.93382 14.78 3.33898 14.1289 3.94118 13.7806V5.45221C3.94118 4.89586 4.39218 4.44485 4.94853 4.44485C5.50487 4.44485 5.95588 4.89586 5.95588 5.45221V13.511H7.46692H8.47427V4.94853ZM15.1228 15.5257H8.87721L9.93493 17.0368H14.0651L15.1228 15.5257ZM16.0798 17.0368L17.1375 15.5257H19.0515V17.0368H16.0798ZM4.94853 15.5257H6.8625L7.92023 17.0368H4.94853V15.5257Z" fill="#001D2F"/>
</svg>
