<svg xmlns="http://www.w3.org/2000/svg" width="24" height="24" viewBox="0 0 24 24">
  <path fill="#001D2F" fill-rule="evenodd" d="M18.454 6.837a.307.307 0 10-.54-.296L16.35 9.39a10.69 10.69 0 00-4.35-.91 10.69 10.69 0 00-4.34.906L6.09 6.545a.306.306 0 00-.417-.123.303.303 0 00-.122.416l1.55 2.816C4.056 11.218 1.998 14.197 2 17.618l20-.003c0-3.419-2.054-6.392-5.095-7.96l1.55-2.818zm-11.84 6.338a.838.838 0 011.676 0 .838.838 0 01-1.676 0zm9.943.833a.836.836 0 01-.838-.835.843.843 0 01.838-.837.835.835 0 110 1.672"/>
</svg>
